{
  "asset": {
    "generator": "glTF-Transform",
    "version": "2.0"
  },
  "accessors": [
    {
      "type": "VEC3",
      "componentType": 5126,
      "count": 240,
      "max": [
        108.69153594970703,
        74.8784408569336,
        66.49319458007812
      ],
      "min": [
        -90.89249420166016,
        -86.16458892822266,
        -78.88909149169922
      ],
      "bufferView": 1,
      "byteOffset": 0
    },
    {
      "type": "VEC3",
      "componentType": 5126,
      "count": 240,
      "bufferView": 1,
      "byteOffset": 12
    },
    {
      "type": "VEC2",
      "componentType": 5126,
      "count": 240,
      "bufferView": 1,
      "byteOffset": 24
    },
    {
      "type": "SCALAR",
      "componentType": 5126,
      "count": 240,
      "bufferView": 1,
      "byteOffset": 32
    },
    {
      "type": "SCALAR",
      "componentType": 5123,
      "count": 360,
      "bufferView": 2,
      "byteOffset": 0
    }
  ],
  "bufferViews": [
    {
      "buffer": 0,
      "byteOffset": 9360,
      "byteLength": 15490
    },
    {
      "buffer": 0,
      "byteOffset": 0,
      "byteLength": 8640,
      "byteStride": 36,
      "target": 34962
    },
    {
      "buffer": 0,
      "byteOffset": 8640,
      "byteLength": 720,
      "target": 34963
    },
    {
      "buffer": 0,
      "byteOffset": 24856,
      "byteLength": 10
    },
    {
      "buffer": 0,
      "byteOffset": 24866,
      "byteLength": 40
    },
    {
      "buffer": 0,
      "byteOffset": 24906,
      "byteLength": 40
    },
    {
      "buffer": 0,
      "byteOffset": 24946,
      "byteLength": 40
    }
  ],
  "samplers": [
    {
      "magFilter": 9729,
      "minFilter": 9729,
      "wrapS": 10497,
      "wrapT": 10497
    }
  ],
  "textures": [
    {
      "source": 0,
      "sampler": 0
    }
  ],
  "images": [
    {
      "name": "wood_red",
      "mimeType": "image/jpeg",
      "bufferView": 0
    }
  ],
  "buffers": [
    {
      "name": "buffer",
      "byteLength": 24986
    }
  ],
  "materials": [
    {
      "pbrMetallicRoughness": {
        "metallicFactor": 0,
        "baseColorTexture": {
          "index": 0
        }
      }
    }
  ],
  "meshes": [
    {
      "primitives": [
        {
          "attributes": {
            "POSITION": 0,
            "NORMAL": 1,
            "TEXCOORD_0": 2,
            "_FEATURE_ID_0": 3
          },
          "mode": 4,
          "material": 0,
          "indices": 4,
          "extensions": {
            "EXT_mesh_features": {
              "featureIds": [
                {
                  "featureCount": 10,
                  "attribute": 0,
                  "propertyTable": 0
                }
              ]
            }
          }
        }
      ]
    }
  ],
  "nodes": [
    {
      "rotation": [
        -0.7071067811865475,
        0,
        0,
        0.7071067811865476
      ],
      "mesh": 0
    },
    {
      "translation": [
        1215012.8988049095,
        4081604.3368623317,
        4736313.0423059845
      ],
      "children": [
        0
      ]
    }
  ],
  "scenes": [
    {
      "nodes": [
        1
      ]
    }
  ],
  "scene": 0,
  "extensionsUsed": [
    "EXT_mesh_features",
    "EXT_structural_metadata"
  ],
  "extensions": {
    "EXT_structural_metadata": {
      "schema": {
        "id": "ID_batch_table",
        "classes": {
          "class_batch_table": {
            "properties": {
              "id": {
                "type": "SCALAR",
                "required": true,
                "name": "id",
                "description": "Generated from id",
                "componentType": "UINT8"
              },
              "Longitude": {
                "type": "SCALAR",
                "required": true,
                "name": "Longitude",
                "description": "Generated from Longitude",
                "componentType": "FLOAT32"
              },
              "Latitude": {
                "type": "SCALAR",
                "required": true,
                "name": "Latitude",
                "description": "Generated from Latitude",
                "componentType": "FLOAT32"
              },
              "Height": {
                "type": "SCALAR",
                "required": true,
                "name": "Height",
                "description": "Generated from Height",
                "componentType": "FLOAT32"
              }
            },
            "name": "Generated from batch_table"
          }
        },
        "name": "Generated from batch_table"
      },
      "propertyTables": [
        {
          "class": "class_batch_table",
          "count": 10,
          "name": "Property Table",
          "properties": {
            "id": {
              "values": 3
            },
            "Longitude": {
              "values": 4
            },
            "Latitude": {
              "values": 5
            },
            "Height": {
              "values": 6
            }
          }
        }
      ]
    }
  }
}