{
  "asset": {
    "generator": "glTF-Transform",
    "version": "2.0"
  },
  "accessors": [
    {
      "type": "SCALAR",
      "componentType": 5123,
      "count": 30,
      "bufferView": 0,
      "byteOffset": 0
    },
    {
      "type": "SCALAR",
      "componentType": 5123,
      "count": 18,
      "bufferView": 0,
      "byteOffset": 60
    },
    {
      "type": "SCALAR",
      "componentType": 5123,
      "count": 18,
      "bufferView": 0,
      "byteOffset": 96
    },
    {
      "type": "SCALAR",
      "componentType": 5123,
      "count": 108,
      "bufferView": 0,
      "byteOffset": 132
    },
    {
      "type": "SCALAR",
      "componentType": 5123,
      "count": 108,
      "bufferView": 0,
      "byteOffset": 348
    },
    {
      "type": "SCALAR",
      "componentType": 5123,
      "count": 108,
      "bufferView": 0,
      "byteOffset": 564
    },
    {
      "type": "VEC3",
      "componentType": 5126,
      "count": 12,
      "max": [
        0.8500000238418579,
        0.37450000643730164,
        0.15000000596046448
      ],
      "min": [
        0.6000000238418579,
        0.15000000596046448,
        0.15000000596046448
      ],
      "bufferView": 1,
      "byteOffset": 0
    },
    {
      "type": "VEC3",
      "componentType": 5126,
      "count": 12,
      "bufferView": 1,
      "byteOffset": 12
    },
    {
      "type": "VEC3",
      "componentType": 5126,
      "count": 8,
      "max": [
        0.3525000214576721,
        0.37450000643730164,
        0.8999999761581421
      ],
      "min": [
        0.15549999475479126,
        0.15000000596046448,
        0.8999999761581421
      ],
      "bufferView": 2,
      "byteOffset": 0
    },
    {
      "type": "VEC3",
      "componentType": 5126,
      "count": 8,
      "bufferView": 2,
      "byteOffset": 12
    },
    {
      "type": "VEC3",
      "componentType": 5126,
      "count": 8,
      "max": [
        0.4690000116825104,
        0.8245000243186951,
        0.15000000596046448
      ],
      "min": [
        0.25,
        0.48499998450279236,
        0.15000000596046448
      ],
      "bufferView": 3,
      "byteOffset": 0
    },
    {
      "type": "VEC3",
      "componentType": 5126,
      "count": 8,
      "bufferView": 3,
      "byteOffset": 12
    },
    {
      "type": "VEC4",
      "componentType": 5123,
      "count": 60,
      "normalized": true,
      "bufferView": 4,
      "byteOffset": 0
    },
    {
      "type": "VEC3",
      "componentType": 5126,
      "count": 60,
      "max": [
        1,
        0.10000000149011612,
        0.10000000149011612
      ],
      "min": [
        0,
        0,
        0
      ],
      "bufferView": 4,
      "byteOffset": 8
    },
    {
      "type": "VEC3",
      "componentType": 5126,
      "count": 60,
      "bufferView": 4,
      "byteOffset": 20
    },
    {
      "type": "VEC4",
      "componentType": 5123,
      "count": 60,
      "normalized": true,
      "bufferView": 5,
      "byteOffset": 0
    },
    {
      "type": "VEC3",
      "componentType": 5126,
      "count": 60,
      "max": [
        0.10000000149011612,
        0.10000000149011612,
        1
      ],
      "min": [
        0,
        0,
        0
      ],
      "bufferView": 5,
      "byteOffset": 8
    },
    {
      "type": "VEC3",
      "componentType": 5126,
      "count": 60,
      "bufferView": 5,
      "byteOffset": 20
    },
    {
      "type": "VEC4",
      "componentType": 5123,
      "count": 60,
      "normalized": true,
      "bufferView": 6,
      "byteOffset": 0
    },
    {
      "type": "VEC3",
      "componentType": 5126,
      "count": 60,
      "max": [
        0.10000000149011612,
        1,
        0.10000000149011612
      ],
      "min": [
        0,
        0,
        0
      ],
      "bufferView": 6,
      "byteOffset": 8
    },
    {
      "type": "VEC3",
      "componentType": 5126,
      "count": 60,
      "bufferView": 6,
      "byteOffset": 20
    },
    {
      "type": "VEC3",
      "componentType": 5126,
      "count": 8,
      "bufferView": 7,
      "byteOffset": 0
    },
    {
      "type": "VEC4",
      "componentType": 5126,
      "count": 8,
      "bufferView": 7,
      "byteOffset": 96
    },
    {
      "type": "VEC3",
      "componentType": 5126,
      "count": 8,
      "bufferView": 7,
      "byteOffset": 224
    }
  ],
  "bufferViews": [
    {
      "buffer": 0,
      "byteOffset": 0,
      "byteLength": 780,
      "target": 34963
    },
    {
      "buffer": 0,
      "byteOffset": 780,
      "byteLength": 288,
      "byteStride": 24,
      "target": 34962
    },
    {
      "buffer": 0,
      "byteOffset": 1068,
      "byteLength": 192,
      "byteStride": 24,
      "target": 34962
    },
    {
      "buffer": 0,
      "byteOffset": 1260,
      "byteLength": 192,
      "byteStride": 24,
      "target": 34962
    },
    {
      "buffer": 0,
      "byteOffset": 1452,
      "byteLength": 1920,
      "byteStride": 32,
      "target": 34962
    },
    {
      "buffer": 0,
      "byteOffset": 3372,
      "byteLength": 1920,
      "byteStride": 32,
      "target": 34962
    },
    {
      "buffer": 0,
      "byteOffset": 5292,
      "byteLength": 1920,
      "byteStride": 32,
      "target": 34962
    },
    {
      "buffer": 0,
      "byteOffset": 7212,
      "byteLength": 320
    }
  ],
  "buffers": [
    {
      "byteLength": 7532
    }
  ],
  "materials": [
    {
      "name": "Material.001",
      "doubleSided": true,
      "pbrMetallicRoughness": {
        "baseColorFactor": [
          1,
          0,
          0,
          1
        ],
        "roughnessFactor": 0.5,
        "metallicFactor": 0
      }
    },
    {
      "name": "Material.003",
      "doubleSided": true,
      "pbrMetallicRoughness": {
        "baseColorFactor": [
          0,
          0,
          1,
          1
        ],
        "roughnessFactor": 0.5,
        "metallicFactor": 0
      }
    },
    {
      "name": "Material.002",
      "doubleSided": true,
      "pbrMetallicRoughness": {
        "baseColorFactor": [
          0,
          1,
          0,
          1
        ],
        "roughnessFactor": 0.5,
        "metallicFactor": 0
      }
    }
  ],
  "meshes": [
    {
      "name": "Text",
      "primitives": [
        {
          "attributes": {
            "POSITION": 6,
            "NORMAL": 7
          },
          "mode": 4,
          "material": 0,
          "indices": 0
        }
      ]
    },
    {
      "name": "Text.001",
      "primitives": [
        {
          "attributes": {
            "POSITION": 8,
            "NORMAL": 9
          },
          "mode": 4,
          "material": 1,
          "indices": 1
        }
      ]
    },
    {
      "name": "Text.002",
      "primitives": [
        {
          "attributes": {
            "POSITION": 10,
            "NORMAL": 11
          },
          "mode": 4,
          "material": 2,
          "indices": 2
        }
      ]
    },
    {
      "name": "Circle.001",
      "primitives": [
        {
          "attributes": {
            "COLOR_0": 12,
            "POSITION": 13,
            "NORMAL": 14
          },
          "mode": 4,
          "material": 0,
          "indices": 3
        }
      ]
    },
    {
      "name": "Circle.002",
      "primitives": [
        {
          "attributes": {
            "COLOR_0": 15,
            "POSITION": 16,
            "NORMAL": 17
          },
          "mode": 4,
          "material": 1,
          "indices": 4
        }
      ]
    },
    {
      "name": "Circle.003",
      "primitives": [
        {
          "attributes": {
            "COLOR_0": 18,
            "POSITION": 19,
            "NORMAL": 20
          },
          "mode": 4,
          "material": 2,
          "indices": 5
        }
      ]
    }
  ],
  "nodes": [
    {
      "name": "Text",
      "mesh": 0,
      "extensions": {
        "EXT_mesh_gpu_instancing": {
          "attributes": {
            "TRANSLATION": 21,
            "ROTATION": 22,
            "SCALE": 23
          }
        }
      }
    },
    {
      "name": "Text.001",
      "mesh": 1,
      "extensions": {
        "EXT_mesh_gpu_instancing": {
          "attributes": {
            "TRANSLATION": 21,
            "ROTATION": 22,
            "SCALE": 23
          }
        }
      }
    },
    {
      "name": "Text.002",
      "mesh": 2,
      "extensions": {
        "EXT_mesh_gpu_instancing": {
          "attributes": {
            "TRANSLATION": 21,
            "ROTATION": 22,
            "SCALE": 23
          }
        }
      }
    },
    {
      "name": "Circle",
      "mesh": 3,
      "extensions": {
        "EXT_mesh_gpu_instancing": {
          "attributes": {
            "TRANSLATION": 21,
            "ROTATION": 22,
            "SCALE": 23
          }
        }
      }
    },
    {
      "name": "Circle.001",
      "mesh": 4,
      "extensions": {
        "EXT_mesh_gpu_instancing": {
          "attributes": {
            "TRANSLATION": 21,
            "ROTATION": 22,
            "SCALE": 23
          }
        }
      }
    },
    {
      "name": "Circle.002",
      "mesh": 5,
      "extensions": {
        "EXT_mesh_gpu_instancing": {
          "attributes": {
            "TRANSLATION": 21,
            "ROTATION": 22,
            "SCALE": 23
          }
        }
      }
    },
    {
      "children": [
        0,
        1,
        2,
        3,
        4,
        5
      ]
    },
    {
      "translation": [
        1,
        1,
        -1
      ],
      "children": [
        6
      ]
    }
  ],
  "scenes": [
    {
      "name": "Scene",
      "nodes": [
        7
      ]
    }
  ],
  "scene": 0,
  "extensionsUsed": [
    "EXT_mesh_gpu_instancing"
  ],
  "extensionsRequired": [
    "EXT_mesh_gpu_instancing"
  ]
}