{
  "asset": {
    "generator": "glTF-Transform",
    "version": "2.0"
  },
  "accessors": [
    {
      "type": "VEC3",
      "componentType": 5126,
      "count": 1000,
      "max": [
        3.2968313694000244,
        3.522307872772217,
        4.033046722412109
      ],
      "min": [
        -3.2968313694000244,
        -3.522307872772217,
        -4.033046722412109
      ],
      "bufferView": 0,
      "byteOffset": 0
    }
  ],
  "bufferViews": [
    {
      "buffer": 0,
      "byteOffset": 0,
      "byteLength": 12000,
      "byteStride": 12,
      "target": 34962
    }
  ],
  "buffers": [
    {
      "byteLength": 12000
    }
  ],
  "materials": [
    {
      "pbrMetallicRoughness": {
        "baseColorFactor": [
          1,
          1,
          0,
          0.2
        ],
        "metallicFactor": 0
      }
    }
  ],
  "meshes": [
    {
      "primitives": [
        {
          "attributes": {
            "POSITION": 0
          },
          "mode": 0,
          "material": 0
        }
      ]
    }
  ],
  "nodes": [
    {
      "translation": [
        1215012.8828876738,
        4081605.22126042,
        4736313.051199594
      ],
      "mesh": 0
    }
  ],
  "scenes": [
    {
      "nodes": [
        0
      ]
    }
  ]
}