{
  "asset": {
    "generator": "glTF-Transform",
    "version": "2.0"
  },
  "accessors": [
    {
      "type": "VEC3",
      "componentType": 5126,
      "count": 24,
      "max": [
        10,
        10,
        10
      ],
      "min": [
        -10,
        -10,
        -10
      ],
      "bufferView": 1,
      "byteOffset": 0
    },
    {
      "type": "VEC3",
      "componentType": 5126,
      "count": 24,
      "bufferView": 1,
      "byteOffset": 12
    },
    {
      "type": "VEC2",
      "componentType": 5126,
      "count": 24,
      "bufferView": 1,
      "byteOffset": 24
    },
    {
      "type": "SCALAR",
      "componentType": 5123,
      "count": 36,
      "bufferView": 2,
      "byteOffset": 0
    },
    {
      "type": "VEC3",
      "componentType": 5126,
      "count": 25,
      "bufferView": 3,
      "byteOffset": 0
    },
    {
      "type": "VEC4",
      "componentType": 5126,
      "count": 25,
      "bufferView": 3,
      "byteOffset": 300
    },
    {
      "type": "VEC3",
      "componentType": 5126,
      "count": 25,
      "bufferView": 3,
      "byteOffset": 700
    },
    {
      "type": "SCALAR",
      "componentType": 5123,
      "count": 25,
      "bufferView": 3,
      "byteOffset": 1000
    }
  ],
  "bufferViews": [
    {
      "buffer": 0,
      "byteOffset": 1892,
      "byteLength": 20090
    },
    {
      "buffer": 0,
      "byteOffset": 0,
      "byteLength": 768,
      "byteStride": 32,
      "target": 34962
    },
    {
      "buffer": 0,
      "byteOffset": 768,
      "byteLength": 72,
      "target": 34963
    },
    {
      "buffer": 0,
      "byteOffset": 840,
      "byteLength": 1052
    },
    {
      "buffer": 0,
      "byteOffset": 21984,
      "byteLength": 25
    }
  ],
  "samplers": [
    {
      "magFilter": 9729,
      "minFilter": 9729,
      "wrapS": 10497,
      "wrapT": 10497
    }
  ],
  "textures": [
    {
      "source": 0,
      "sampler": 0
    }
  ],
  "images": [
    {
      "name": "bricks",
      "mimeType": "image/jpeg",
      "bufferView": 0
    }
  ],
  "buffers": [
    {
      "name": "textured_box",
      "byteLength": 22009
    }
  ],
  "materials": [
    {
      "pbrMetallicRoughness": {
        "metallicFactor": 0,
        "baseColorTexture": {
          "index": 0
        }
      }
    }
  ],
  "meshes": [
    {
      "primitives": [
        {
          "attributes": {
            "POSITION": 0,
            "NORMAL": 1,
            "TEXCOORD_0": 2
          },
          "mode": 4,
          "material": 0,
          "indices": 3
        }
      ]
    }
  ],
  "nodes": [
    {
      "mesh": 0,
      "extensions": {
        "EXT_instance_features": {
          "featureIds": [
            {
              "featureCount": 25,
              "attribute": 0,
              "propertyTable": 0
            }
          ]
        },
        "EXT_mesh_gpu_instancing": {
          "attributes": {
            "TRANSLATION": 4,
            "ROTATION": 5,
            "SCALE": 6,
            "_FEATURE_ID_0": 7
          }
        }
      }
    },
    {
      "translation": [
        1215013.84,
        4081608.45,
        4736316.76
      ],
      "children": [
        0
      ]
    }
  ],
  "scenes": [
    {
      "nodes": [
        1
      ]
    }
  ],
  "scene": 0,
  "extensionsUsed": [
    "EXT_instance_features",
    "EXT_mesh_gpu_instancing",
    "EXT_structural_metadata"
  ],
  "extensionsRequired": [
    "EXT_mesh_gpu_instancing"
  ],
  "extensions": {
    "EXT_structural_metadata": {
      "schema": {
        "id": "ID_batch_table",
        "classes": {
          "class_batch_table": {
            "properties": {
              "Height": {
                "type": "SCALAR",
                "required": true,
                "name": "Height",
                "description": "Generated from Height",
                "componentType": "UINT8"
              }
            },
            "name": "Generated from batch_table"
          }
        },
        "name": "Generated from batch_table"
      },
      "propertyTables": [
        {
          "class": "class_batch_table",
          "count": 25,
          "name": "Property Table",
          "properties": {
            "Height": {
              "values": 4
            }
          }
        }
      ]
    }
  }
}