{
  "asset": {
    "generator": "glTF-Transform",
    "version": "2.0"
  },
  "accessors": [
    {
      "type": "VEC3",
      "componentType": 5121,
      "count": 1000,
      "normalized": true,
      "bufferView": 0,
      "byteOffset": 0
    },
    {
      "type": "VEC3",
      "componentType": 5122,
      "count": 1000,
      "max": [
        32711,
        32715,
        32767
      ],
      "min": [
        -32711,
        -32715,
        -32767
      ],
      "normalized": true,
      "bufferView": 0,
      "byteOffset": 4
    },
    {
      "type": "VEC3",
      "componentType": 5122,
      "count": 1000,
      "normalized": true,
      "bufferView": 0,
      "byteOffset": 12
    }
  ],
  "bufferViews": [
    {
      "buffer": 0,
      "byteOffset": 0,
      "byteLength": 20000,
      "byteStride": 20,
      "target": 34962
    }
  ],
  "buffers": [
    {
      "byteLength": 20000
    }
  ],
  "materials": [
    {
      "pbrMetallicRoughness": {
        "metallicFactor": 0
      }
    }
  ],
  "meshes": [
    {
      "primitives": [
        {
          "attributes": {
            "COLOR_0": 0,
            "POSITION": 1,
            "NORMAL": 2
          },
          "mode": 0,
          "material": 0
        }
      ]
    }
  ],
  "nodes": [
    {
      "translation": [
        1215012.8899403338,
        4081605.2249652063,
        4736313.049182096
      ],
      "rotation": [
        -0.7071067811865475,
        0,
        0,
        0.7071067811865476
      ],
      "scale": [
        4.993637323379517,
        4.993637323379517,
        4.993637323379517
      ],
      "mesh": 0
    }
  ],
  "scenes": [
    {
      "nodes": [
        0
      ]
    }
  ],
  "extensionsUsed": [
    "KHR_mesh_quantization"
  ],
  "extensionsRequired": [
    "KHR_mesh_quantization"
  ]
}