{
  "asset": {
    "generator": "glTF-Transform",
    "version": "2.0"
  },
  "accessors": [
    {
      "type": "VEC3",
      "componentType": 5126,
      "count": 1000,
      "max": [
        4.992090702056885,
        4.987441539764404,
        4.997342109680176
      ],
      "min": [
        -4.977985382080078,
        -4.9834065437316895,
        -4.989932537078857
      ],
      "bufferView": 0,
      "byteOffset": 0
    },
    {
      "type": "VEC3",
      "componentType": 5126,
      "count": 1000,
      "bufferView": 0,
      "byteOffset": 12
    },
    {
      "type": "VEC3",
      "componentType": 5121,
      "count": 1000,
      "normalized": true,
      "bufferView": 0,
      "byteOffset": 24
    }
  ],
  "bufferViews": [
    {
      "buffer": 0,
      "byteOffset": 0,
      "byteLength": 28000,
      "byteStride": 28,
      "target": 34962
    }
  ],
  "buffers": [
    {
      "byteLength": 28000
    }
  ],
  "materials": [
    {
      "pbrMetallicRoughness": {
        "metallicFactor": 0
      }
    }
  ],
  "meshes": [
    {
      "primitives": [
        {
          "attributes": {
            "POSITION": 0,
            "NORMAL": 1,
            "COLOR_0": 2
          },
          "mode": 0,
          "material": 0
        }
      ]
    }
  ],
  "nodes": [
    {
      "translation": [
        1215012.8828876738,
        4081605.22126042,
        4736313.051199594
      ],
      "rotation": [
        -0.7071067811865475,
        0,
        0,
        0.7071067811865476
      ],
      "mesh": 0
    }
  ],
  "scenes": [
    {
      "nodes": [
        0
      ]
    }
  ]
}