{
  "asset": {
    "generator": "glTF-Transform",
    "version": "2.0"
  },
  "accessors": [
    {
      "name": "accessor_0",
      "type": "SCALAR",
      "componentType": 5123,
      "count": 3,
      "bufferView": 0,
      "byteOffset": 0
    },
    {
      "name": "accessor_1",
      "type": "VEC3",
      "componentType": 5126,
      "count": 3,
      "max": [
        1,
        1,
        0
      ],
      "min": [
        0,
        0,
        0
      ],
      "bufferView": 1,
      "byteOffset": 0
    },
    {
      "type": "VEC3",
      "componentType": 5126,
      "count": 3,
      "bufferView": 1,
      "byteOffset": 12
    }
  ],
  "bufferViews": [
    {
      "buffer": 0,
      "byteOffset": 0,
      "byteLength": 8,
      "target": 34963
    },
    {
      "buffer": 0,
      "byteOffset": 8,
      "byteLength": 72,
      "byteStride": 24,
      "target": 34962
    }
  ],
  "buffers": [
    {
      "name": "binary_glTF",
      "byteLength": 80
    }
  ],
  "materials": [
    {
      "name": "material_0",
      "pbrMetallicRoughness": {
        "baseColorFactor": [
          0.21404114048223255,
          0.21404114048223255,
          0.21404114048223255,
          1
        ],
        "metallicFactor": 0
      }
    }
  ],
  "meshes": [
    {
      "name": "mesh_0",
      "primitives": [
        {
          "attributes": {
            "POSITION": 1,
            "NORMAL": 2
          },
          "mode": 4,
          "material": 0,
          "indices": 0
        }
      ]
    }
  ],
  "nodes": [
    {
      "name": "node_0",
      "mesh": 0
    }
  ],
  "scenes": [
    {
      "name": "scene_0",
      "nodes": [
        0
      ]
    }
  ],
  "scene": 0
}