{
  "asset": {
    "generator": "glTF-Transform v3.10.1",
    "version": "2.0"
  },
  "accessors": [
    {
      "type": "SCALAR",
      "componentType": 5123,
      "count": 3,
      "normalized": false,
      "bufferView": 0
    },
    {
      "type": "VEC3",
      "componentType": 5122,
      "count": 3,
      "max": [
        32767,
        32767,
        0
      ],
      "min": [
        -32767,
        -32767,
        0
      ],
      "normalized": true,
      "bufferView": 1
    }
  ],
  "bufferViews": [
    {
      "buffer": 1,
      "byteLength": 6,
      "target": 34963,
      "extensions": {
        "EXT_meshopt_compression": {
          "buffer": 0,
          "byteLength": 18,
          "mode": "TRIANGLES",
          "byteStride": 2,
          "count": 3
        }
      }
    },
    {
      "buffer": 1,
      "byteOffset": 8,
      "byteLength": 24,
      "target": 34962,
      "byteStride": 8,
      "extensions": {
        "EXT_meshopt_compression": {
          "buffer": 0,
          "byteOffset": 20,
          "byteLength": 60,
          "mode": "ATTRIBUTES",
          "byteStride": 8,
          "count": 3
        }
      }
    }
  ],
  "buffers": [
    {
      "uri": "TriangleMeshopt.bin",
      "byteLength": 80
    },
    {
      "byteLength": 32,
      "extensions": {
        "EXT_meshopt_compression": {
          "fallback": true
        }
      }
    }
  ],
  "meshes": [
    {
      "primitives": [
        {
          "attributes": {
            "POSITION": 1
          },
          "mode": 4,
          "indices": 0
        }
      ]
    }
  ],
  "nodes": [
    {
      "translation": [
        0.5,
        0.5,
        0
      ],
      "scale": [
        0.5,
        0.5,
        0.5
      ],
      "mesh": 0
    }
  ],
  "scenes": [
    {
      "nodes": [
        0
      ]
    }
  ],
  "scene": 0,
  "extensionsUsed": [
    "KHR_mesh_quantization",
    "EXT_meshopt_compression"
  ],
  "extensionsRequired": [
    "KHR_mesh_quantization",
    "EXT_meshopt_compression"
  ]
}