{
  "asset": {
    "generator": "glTF-Transform",
    "version": "2.0"
  },
  "accessors": [
    {
      "type": "VEC3",
      "componentType": 5126,
      "count": 240,
      "max": [
        108.69153594970703,
        74.8784408569336,
        66.49319458007812
      ],
      "min": [
        -90.89249420166016,
        -86.16458892822266,
        -78.88909149169922
      ],
      "bufferView": 0,
      "byteOffset": 0
    },
    {
      "type": "VEC3",
      "componentType": 5126,
      "count": 240,
      "bufferView": 0,
      "byteOffset": 12
    },
    {
      "type": "SCALAR",
      "componentType": 5126,
      "count": 240,
      "bufferView": 0,
      "byteOffset": 24
    },
    {
      "type": "SCALAR",
      "componentType": 5123,
      "count": 36,
      "bufferView": 1,
      "byteOffset": 0
    },
    {
      "type": "SCALAR",
      "componentType": 5123,
      "count": 36,
      "bufferView": 1,
      "byteOffset": 72
    },
    {
      "type": "SCALAR",
      "componentType": 5123,
      "count": 36,
      "bufferView": 1,
      "byteOffset": 144
    },
    {
      "type": "SCALAR",
      "componentType": 5123,
      "count": 36,
      "bufferView": 1,
      "byteOffset": 216
    },
    {
      "type": "SCALAR",
      "componentType": 5123,
      "count": 36,
      "bufferView": 1,
      "byteOffset": 288
    },
    {
      "type": "SCALAR",
      "componentType": 5123,
      "count": 36,
      "bufferView": 1,
      "byteOffset": 360
    },
    {
      "type": "SCALAR",
      "componentType": 5123,
      "count": 36,
      "bufferView": 1,
      "byteOffset": 432
    },
    {
      "type": "SCALAR",
      "componentType": 5123,
      "count": 36,
      "bufferView": 1,
      "byteOffset": 504
    },
    {
      "type": "SCALAR",
      "componentType": 5123,
      "count": 36,
      "bufferView": 1,
      "byteOffset": 576
    },
    {
      "type": "SCALAR",
      "componentType": 5123,
      "count": 36,
      "bufferView": 1,
      "byteOffset": 648
    }
  ],
  "bufferViews": [
    {
      "buffer": 0,
      "byteOffset": 0,
      "byteLength": 6720,
      "byteStride": 28,
      "target": 34962
    },
    {
      "buffer": 0,
      "byteOffset": 6720,
      "byteLength": 720,
      "target": 34963
    },
    {
      "buffer": 0,
      "byteOffset": 7440,
      "byteLength": 10
    },
    {
      "buffer": 0,
      "byteOffset": 7450,
      "byteLength": 40
    },
    {
      "buffer": 0,
      "byteOffset": 7490,
      "byteLength": 40
    },
    {
      "buffer": 0,
      "byteOffset": 7530,
      "byteLength": 40
    }
  ],
  "buffers": [
    {
      "name": "buffer",
      "byteLength": 7570
    }
  ],
  "materials": [
    {
      "alphaMode": "BLEND",
      "doubleSided": true,
      "pbrMetallicRoughness": {
        "baseColorFactor": [
          0.18026969418860972,
          0.06830684817396104,
          0.019475240260362625,
          0.5
        ],
        "metallicFactor": 0
      }
    },
    {
      "alphaMode": "BLEND",
      "doubleSided": true,
      "pbrMetallicRoughness": {
        "baseColorFactor": [
          0.6647203180473298,
          0.46321852901019156,
          0.19411562173627317,
          0.5
        ],
        "metallicFactor": 0
      }
    },
    {
      "alphaMode": "BLEND",
      "doubleSided": true,
      "pbrMetallicRoughness": {
        "baseColorFactor": [
          0.7249339253176004,
          0.9262829599902034,
          0.4202036040369421,
          0.5
        ],
        "metallicFactor": 0
      }
    },
    {
      "alphaMode": "BLEND",
      "doubleSided": true,
      "pbrMetallicRoughness": {
        "baseColorFactor": [
          0.10517515405081213,
          0.4854271006770432,
          0.2257127221673727,
          0.5
        ],
        "metallicFactor": 0
      }
    },
    {
      "alphaMode": "BLEND",
      "doubleSided": true,
      "pbrMetallicRoughness": {
        "baseColorFactor": [
          0.012780810939148068,
          0.8963407492265105,
          0.48737160488963127,
          0.5
        ],
        "metallicFactor": 0
      }
    },
    {
      "alphaMode": "BLEND",
      "doubleSided": true,
      "pbrMetallicRoughness": {
        "baseColorFactor": [
          0.8261813514400274,
          0.9418066516518593,
          0.09281248901970685,
          0.5
        ],
        "metallicFactor": 0
      }
    },
    {
      "alphaMode": "BLEND",
      "doubleSided": true,
      "pbrMetallicRoughness": {
        "baseColorFactor": [
          0.850795085541904,
          0.8897081904578954,
          0.7299644658342004,
          0.5
        ],
        "metallicFactor": 0
      }
    },
    {
      "alphaMode": "BLEND",
      "doubleSided": true,
      "pbrMetallicRoughness": {
        "baseColorFactor": [
          0.7137619336135685,
          0.10873607080429792,
          0.5178985300008208,
          0.5
        ],
        "metallicFactor": 0
      }
    },
    {
      "alphaMode": "BLEND",
      "doubleSided": true,
      "pbrMetallicRoughness": {
        "baseColorFactor": [
          0.8939041667617857,
          0.7853887167293578,
          0.8571542475838214,
          0.5
        ],
        "metallicFactor": 0
      }
    },
    {
      "alphaMode": "BLEND",
      "doubleSided": true,
      "pbrMetallicRoughness": {
        "baseColorFactor": [
          0.5876658500637859,
          0.16508661676198244,
          0.7368362138513476,
          0.5
        ],
        "metallicFactor": 0
      }
    }
  ],
  "meshes": [
    {
      "primitives": [
        {
          "attributes": {
            "POSITION": 0,
            "NORMAL": 1,
            "_FEATURE_ID_0": 2
          },
          "mode": 4,
          "material": 0,
          "indices": 3,
          "extensions": {
            "EXT_mesh_features": {
              "featureIds": [
                {
                  "featureCount": 10,
                  "attribute": 0,
                  "propertyTable": 0
                }
              ]
            }
          }
        },
        {
          "attributes": {
            "POSITION": 0,
            "NORMAL": 1,
            "_FEATURE_ID_0": 2
          },
          "mode": 4,
          "material": 1,
          "indices": 4,
          "extensions": {
            "EXT_mesh_features": {
              "featureIds": [
                {
                  "featureCount": 10,
                  "attribute": 0,
                  "propertyTable": 0
                }
              ]
            }
          }
        },
        {
          "attributes": {
            "POSITION": 0,
            "NORMAL": 1,
            "_FEATURE_ID_0": 2
          },
          "mode": 4,
          "material": 2,
          "indices": 5,
          "extensions": {
            "EXT_mesh_features": {
              "featureIds": [
                {
                  "featureCount": 10,
                  "attribute": 0,
                  "propertyTable": 0
                }
              ]
            }
          }
        },
        {
          "attributes": {
            "POSITION": 0,
            "NORMAL": 1,
            "_FEATURE_ID_0": 2
          },
          "mode": 4,
          "material": 3,
          "indices": 6,
          "extensions": {
            "EXT_mesh_features": {
              "featureIds": [
                {
                  "featureCount": 10,
                  "attribute": 0,
                  "propertyTable": 0
                }
              ]
            }
          }
        },
        {
          "attributes": {
            "POSITION": 0,
            "NORMAL": 1,
            "_FEATURE_ID_0": 2
          },
          "mode": 4,
          "material": 4,
          "indices": 7,
          "extensions": {
            "EXT_mesh_features": {
              "featureIds": [
                {
                  "featureCount": 10,
                  "attribute": 0,
                  "propertyTable": 0
                }
              ]
            }
          }
        },
        {
          "attributes": {
            "POSITION": 0,
            "NORMAL": 1,
            "_FEATURE_ID_0": 2
          },
          "mode": 4,
          "material": 5,
          "indices": 8,
          "extensions": {
            "EXT_mesh_features": {
              "featureIds": [
                {
                  "featureCount": 10,
                  "attribute": 0,
                  "propertyTable": 0
                }
              ]
            }
          }
        },
        {
          "attributes": {
            "POSITION": 0,
            "NORMAL": 1,
            "_FEATURE_ID_0": 2
          },
          "mode": 4,
          "material": 6,
          "indices": 9,
          "extensions": {
            "EXT_mesh_features": {
              "featureIds": [
                {
                  "featureCount": 10,
                  "attribute": 0,
                  "propertyTable": 0
                }
              ]
            }
          }
        },
        {
          "attributes": {
            "POSITION": 0,
            "NORMAL": 1,
            "_FEATURE_ID_0": 2
          },
          "mode": 4,
          "material": 7,
          "indices": 10,
          "extensions": {
            "EXT_mesh_features": {
              "featureIds": [
                {
                  "featureCount": 10,
                  "attribute": 0,
                  "propertyTable": 0
                }
              ]
            }
          }
        },
        {
          "attributes": {
            "POSITION": 0,
            "NORMAL": 1,
            "_FEATURE_ID_0": 2
          },
          "mode": 4,
          "material": 8,
          "indices": 11,
          "extensions": {
            "EXT_mesh_features": {
              "featureIds": [
                {
                  "featureCount": 10,
                  "attribute": 0,
                  "propertyTable": 0
                }
              ]
            }
          }
        },
        {
          "attributes": {
            "POSITION": 0,
            "NORMAL": 1,
            "_FEATURE_ID_0": 2
          },
          "mode": 4,
          "material": 9,
          "indices": 12,
          "extensions": {
            "EXT_mesh_features": {
              "featureIds": [
                {
                  "featureCount": 10,
                  "attribute": 0,
                  "propertyTable": 0
                }
              ]
            }
          }
        }
      ]
    }
  ],
  "nodes": [
    {
      "rotation": [
        -0.7071067811865475,
        0,
        0,
        0.7071067811865476
      ],
      "mesh": 0
    },
    {
      "translation": [
        1215012.8988049095,
        4081604.3368623317,
        4736313.0423059845
      ],
      "children": [
        0
      ]
    }
  ],
  "scenes": [
    {
      "nodes": [
        1
      ]
    }
  ],
  "scene": 0,
  "extensionsUsed": [
    "EXT_structural_metadata",
    "EXT_mesh_features"
  ],
  "extensions": {
    "EXT_structural_metadata": {
      "schema": {
        "id": "ID_batch_table",
        "name": "Generated from batch_table",
        "classes": {
          "class_batch_table": {
            "name": "Generated from batch_table",
            "properties": {
              "id": {
                "name": "id",
                "description": "Generated from id",
                "type": "SCALAR",
                "componentType": "UINT8",
                "required": true
              },
              "Longitude": {
                "name": "Longitude",
                "description": "Generated from Longitude",
                "type": "SCALAR",
                "componentType": "FLOAT32",
                "required": true
              },
              "Latitude": {
                "name": "Latitude",
                "description": "Generated from Latitude",
                "type": "SCALAR",
                "componentType": "FLOAT32",
                "required": true
              },
              "Height": {
                "name": "Height",
                "description": "Generated from Height",
                "type": "SCALAR",
                "componentType": "FLOAT32",
                "required": true
              }
            }
          }
        }
      },
      "propertyTables": [
        {
          "name": "Property Table",
          "class": "class_batch_table",
          "count": 10,
          "properties": {
            "id": {
              "values": 2
            },
            "Longitude": {
              "values": 3
            },
            "Latitude": {
              "values": 4
            },
            "Height": {
              "values": 5
            }
          }
        }
      ]
    }
  }
}