{
  "asset": {
    "generator": "glTF-Transform v3.3.1",
    "version": "2.0"
  },
  "accessors": [
    {
      "type": "VEC3",
      "componentType": 5126,
      "count": 1000,
      "max": [
        2.5,
        2.5,
        2.5
      ],
      "min": [
        -2.5,
        -2.5,
        -2.5
      ],
      "bufferView": 0,
      "byteOffset": 0
    },
    {
      "type": "VEC4",
      "componentType": 5121,
      "count": 1000,
      "normalized": true,
      "bufferView": 0,
      "byteOffset": 12
    },
    {
      "type": "VEC3",
      "componentType": 5126,
      "count": 1000,
      "bufferView": 0,
      "byteOffset": 16
    },
    {
      "type": "SCALAR",
      "componentType": 5123,
      "count": 1000,
      "bufferView": 0,
      "byteOffset": 28
    }
  ],
  "bufferViews": [
    {
      "buffer": 0,
      "byteOffset": 0,
      "byteLength": 32000,
      "byteStride": 32,
      "target": 34962
    }
  ],
  "buffers": [
    {
      "byteLength": 32000
    }
  ],
  "meshes": [
    {
      "primitives": [
        {
          "attributes": {
            "POSITION": 0,
            "COLOR_0": 1,
            "_SECONDARYCOLOR": 2,
            "_ID": 3
          },
          "mode": 0,
          "extensions": {
            "EXT_structural_metadata": {
              "propertyAttributes": [
                0
              ]
            }
          }
        }
      ]
    }
  ],
  "nodes": [
    {
      "mesh": 0
    }
  ],
  "scenes": [
    {
      "nodes": [
        0
      ]
    }
  ],
  "extensionsUsed": [
    "EXT_structural_metadata"
  ],
  "extensions": {
    "EXT_structural_metadata": {
      "schema": {
        "id": "ID_batch_table",
        "name": "Generated from batch_table",
        "classes": {
          "class_batch_table": {
            "name": "Generated from batch_table",
            "properties": {
              "temperature__": {
                "name": "temperature ℃",
                "description": "Generated from temperature ℃",
                "type": "SCALAR",
                "componentType": "FLOAT32",
                "required": true
              },
              "secondaryColor": {
                "name": "secondaryColor",
                "description": "Generated from secondaryColor",
                "type": "VEC3",
                "componentType": "FLOAT32",
                "required": true
              },
              "id": {
                "name": "id",
                "description": "Generated from id",
                "type": "SCALAR",
                "componentType": "UINT16",
                "required": true
              }
            }
          }
        }
      },
      "propertyAttributes": [
        {
          "class": "class_batch_table",
          "properties": {
            "secondaryColor": {
              "attribute": "_SECONDARYCOLOR"
            },
            "id": {
              "attribute": "_ID"
            }
          }
        }
      ]
    }
  }
}