{
  "asset": {
    "generator": "glTF-Transform",
    "version": "2.0"
  },
  "accessors": [
    {
      "type": "VEC3",
      "componentType": 5126,
      "count": 240,
      "max": [
        108.69153594970703,
        74.8784408569336,
        66.49319458007812
      ],
      "min": [
        -90.89249420166016,
        -86.16458892822266,
        -78.88909149169922
      ],
      "bufferView": 0,
      "byteOffset": 0
    },
    {
      "type": "VEC3",
      "componentType": 5126,
      "count": 240,
      "bufferView": 0,
      "byteOffset": 12
    },
    {
      "type": "SCALAR",
      "componentType": 5126,
      "count": 240,
      "bufferView": 0,
      "byteOffset": 24
    },
    {
      "type": "SCALAR",
      "componentType": 5123,
      "count": 360,
      "bufferView": 1,
      "byteOffset": 0
    },
    {
      "type": "SCALAR",
      "componentType": 5123,
      "count": 36,
      "bufferView": 1,
      "byteOffset": 720
    },
    {
      "type": "VEC3",
      "componentType": 5126,
      "count": 24,
      "max": [
        10.000004768371582,
        10,
        10.000005722045898
      ],
      "min": [
        -10.000003814697266,
        -10,
        -10.000003814697266
      ],
      "bufferView": 2,
      "byteOffset": 0
    },
    {
      "type": "VEC3",
      "componentType": 5126,
      "count": 24,
      "bufferView": 2,
      "byteOffset": 12
    },
    {
      "type": "VEC3",
      "componentType": 5126,
      "count": 25,
      "bufferView": 3,
      "byteOffset": 0
    },
    {
      "type": "VEC4",
      "componentType": 5126,
      "count": 25,
      "bufferView": 3,
      "byteOffset": 300
    },
    {
      "type": "VEC3",
      "componentType": 5126,
      "count": 25,
      "bufferView": 3,
      "byteOffset": 700
    },
    {
      "type": "SCALAR",
      "componentType": 5123,
      "count": 25,
      "bufferView": 3,
      "byteOffset": 1000
    }
  ],
  "bufferViews": [
    {
      "buffer": 0,
      "byteOffset": 0,
      "byteLength": 6720,
      "byteStride": 28,
      "target": 34962
    },
    {
      "buffer": 0,
      "byteOffset": 6720,
      "byteLength": 792,
      "target": 34963
    },
    {
      "buffer": 0,
      "byteOffset": 7512,
      "byteLength": 576,
      "byteStride": 24,
      "target": 34962
    },
    {
      "buffer": 0,
      "byteOffset": 8088,
      "byteLength": 1052
    },
    {
      "buffer": 0,
      "byteOffset": 9140,
      "byteLength": 10
    },
    {
      "buffer": 0,
      "byteOffset": 9150,
      "byteLength": 40
    },
    {
      "buffer": 0,
      "byteOffset": 9190,
      "byteLength": 40
    },
    {
      "buffer": 0,
      "byteOffset": 9230,
      "byteLength": 40
    },
    {
      "buffer": 0,
      "byteOffset": 9270,
      "byteLength": 25
    }
  ],
  "buffers": [
    {
      "name": "buffer",
      "byteLength": 9295
    }
  ],
  "materials": [
    {
      "pbrMetallicRoughness": {
        "metallicFactor": 0
      }
    },
    {
      "pbrMetallicRoughness": {
        "metallicFactor": 0
      }
    }
  ],
  "meshes": [
    {
      "primitives": [
        {
          "attributes": {
            "POSITION": 0,
            "NORMAL": 1,
            "_FEATURE_ID_0": 2
          },
          "mode": 4,
          "material": 0,
          "indices": 3,
          "extensions": {
            "EXT_mesh_features": {
              "featureIds": [
                {
                  "featureCount": 10,
                  "attribute": 0,
                  "propertyTable": 0
                }
              ]
            }
          }
        }
      ]
    },
    {
      "primitives": [
        {
          "attributes": {
            "POSITION": 5,
            "NORMAL": 6
          },
          "mode": 4,
          "material": 1,
          "indices": 4
        }
      ]
    }
  ],
  "nodes": [
    {
      "rotation": [
        -0.7071067811865475,
        0,
        0,
        0.7071067811865476
      ],
      "mesh": 0
    },
    {
      "translation": [
        1215012.8988049095,
        4081604.3368623317,
        4736313.0423059845
      ],
      "children": [
        0
      ]
    },
    {
      "mesh": 1,
      "extensions": {
        "EXT_instance_features": {
          "featureIds": [
            {
              "featureCount": 25,
              "attribute": 0,
              "propertyTable": 1
            }
          ]
        },
        "EXT_mesh_gpu_instancing": {
          "attributes": {
            "TRANSLATION": 7,
            "ROTATION": 8,
            "SCALE": 9,
            "_FEATURE_ID_0": 10
          }
        }
      }
    },
    {
      "translation": [
        1215013.84,
        4081608.45,
        4736316.76
      ],
      "children": [
        2
      ]
    }
  ],
  "scenes": [
    {
      "nodes": [
        1,
        3
      ]
    }
  ],
  "scene": 0,
  "extensionsUsed": [
    "EXT_instance_features",
    "EXT_mesh_features",
    "EXT_mesh_gpu_instancing",
    "EXT_structural_metadata"
  ],
  "extensionsRequired": [
    "EXT_mesh_gpu_instancing"
  ],
  "extensions": {
    "EXT_structural_metadata": {
      "schema": {
        "id": "SCHEMA_ID_SPEC_SCHEMA_ID_SUFFIX",
        "classes": {
          "class_batch_table": {
            "properties": {
              "id": {
                "type": "SCALAR",
                "required": true,
                "name": "id",
                "description": "Generated from id",
                "componentType": "UINT8"
              },
              "Longitude": {
                "type": "SCALAR",
                "required": true,
                "name": "Longitude",
                "description": "Generated from Longitude",
                "componentType": "FLOAT32"
              },
              "Latitude": {
                "type": "SCALAR",
                "required": true,
                "name": "Latitude",
                "description": "Generated from Latitude",
                "componentType": "FLOAT32"
              },
              "Height": {
                "type": "SCALAR",
                "required": true,
                "name": "Height",
                "description": "Generated from Height",
                "componentType": "FLOAT32"
              }
            },
            "name": "Generated from batch_table"
          },
          "class_batch_table_0": {
            "properties": {
              "Height": {
                "type": "SCALAR",
                "required": true,
                "name": "Height",
                "description": "Generated from Height",
                "componentType": "UINT8"
              }
            },
            "name": "Generated from batch_table"
          }
        },
        "name": "Generated from batch_table"
      },
      "propertyTables": [
        {
          "class": "class_batch_table",
          "count": 10,
          "name": "Property Table",
          "properties": {
            "id": {
              "values": 4
            },
            "Longitude": {
              "values": 5
            },
            "Latitude": {
              "values": 6
            },
            "Height": {
              "values": 7
            }
          }
        },
        {
          "class": "class_batch_table_0",
          "count": 25,
          "name": "Property Table",
          "properties": {
            "Height": {
              "values": 8
            }
          }
        }
      ]
    }
  }
}