{
  "asset": {
    "generator": "glTF-Transform",
    "version": "2.0"
  },
  "accessors": [
    {
      "type": "VEC3",
      "componentType": 5126,
      "count": 1000,
      "max": [
        4.992218971252441,
        4.98740816116333,
        4.997341632843018
      ],
      "min": [
        -4.977985382080078,
        -4.9834065437316895,
        -4.989932537078857
      ],
      "bufferView": 0,
      "byteOffset": 0
    },
    {
      "type": "VEC3",
      "componentType": 5126,
      "count": 1000,
      "bufferView": 0,
      "byteOffset": 12
    },
    {
      "type": "VEC3",
      "componentType": 5121,
      "count": 1000,
      "normalized": true,
      "bufferView": 0,
      "byteOffset": 24
    },
    {
      "type": "SCALAR",
      "componentType": 5126,
      "count": 1000,
      "bufferView": 0,
      "byteOffset": 28
    },
    {
      "type": "VEC3",
      "componentType": 5126,
      "count": 1000,
      "bufferView": 0,
      "byteOffset": 32
    },
    {
      "type": "SCALAR",
      "componentType": 5123,
      "count": 1000,
      "bufferView": 0,
      "byteOffset": 44
    }
  ],
  "bufferViews": [
    {
      "buffer": 0,
      "byteOffset": 0,
      "byteLength": 48000,
      "byteStride": 48,
      "target": 34962
    }
  ],
  "buffers": [
    {
      "byteLength": 48000
    }
  ],
  "materials": [
    {
      "pbrMetallicRoughness": {
        "metallicFactor": 0
      }
    }
  ],
  "meshes": [
    {
      "primitives": [
        {
          "attributes": {
            "POSITION": 0,
            "NORMAL": 1,
            "COLOR_0": 2,
            "_TEMPERATURE": 3,
            "_SECONDARYCOLOR": 4,
            "_ID": 5
          },
          "mode": 0,
          "material": 0,
          "extensions": {
            "EXT_structural_metadata": {
              "propertyAttributes": [
                0
              ]
            }
          }
        }
      ]
    }
  ],
  "nodes": [
    {
      "translation": [
        1215012.8828876738,
        4081605.22126042,
        4736313.051199594
      ],
      "rotation": [
        -0.7071067811865475,
        0,
        0,
        0.7071067811865476
      ],
      "mesh": 0
    }
  ],
  "scenes": [
    {
      "nodes": [
        0
      ]
    }
  ],
  "extensionsUsed": [
    "EXT_structural_metadata"
  ],
  "extensions": {
    "EXT_structural_metadata": {
      "schema": {
        "id": "ID_batch_table",
        "name": "Generated from batch_table",
        "classes": {
          "class_batch_table": {
            "name": "Generated from batch_table",
            "properties": {
              "temperature": {
                "name": "temperature",
                "description": "Generated from temperature",
                "type": "SCALAR",
                "componentType": "FLOAT32",
                "required": true
              },
              "secondaryColor": {
                "name": "secondaryColor",
                "description": "Generated from secondaryColor",
                "type": "VEC3",
                "componentType": "FLOAT32",
                "required": true
              },
              "id": {
                "name": "id",
                "description": "Generated from id",
                "type": "SCALAR",
                "componentType": "UINT16",
                "required": true
              }
            }
          }
        }
      },
      "propertyAttributes": [
        {
          "class": "class_batch_table",
          "properties": {
            "temperature": {
              "attribute": "_TEMPERATURE"
            },
            "secondaryColor": {
              "attribute": "_SECONDARYCOLOR"
            },
            "id": {
              "attribute": "_ID"
            }
          }
        }
      ]
    }
  }
}